<?xml version="1.0" standalone="no"?>
<!DOCTYPE svg PUBLIC "-//W3C//DTD SVG 20010904//EN"
 "http://www.w3.org/TR/2001/REC-SVG-20010904/DTD/svg10.dtd">
<svg version="1.0" xmlns="http://www.w3.org/2000/svg"
 width="296.000000pt" height="170.000000pt" viewBox="0 0 296.000000 170.000000"
 preserveAspectRatio="xMidYMid meet">

<g transform="translate(0.000000,170.000000) scale(0.100000,-0.100000)"
fill="#000000" stroke="none">
<path d="M1423 1685 c-40 -17 -73 -69 -73 -113 0 -19 15 -69 34 -112 36 -81
52 -141 47 -175 -4 -27 -30 -55 -51 -55 -9 0 -39 -11 -66 -25 -63 -32 -84 -31
-116 3 -40 42 -48 66 -48 137 0 105 -43 155 -133 155 -50 0 -88 -24 -112 -70
-37 -71 -8 -136 84 -189 67 -40 119 -87 141 -130 28 -55 -21 -133 -95 -147
-40 -7 -130 19 -161 47 -48 44 -130 40 -161 -7 -27 -42 -20 -94 16 -126 36
-32 60 -34 121 -13 50 17 100 19 152 5 57 -16 77 -39 92 -103 13 -55 13 -58
-8 -69 -32 -17 -108 -14 -136 5 -49 34 -136 11 -170 -45 -27 -44 -26 -97 3
-139 28 -42 60 -59 115 -59 40 0 49 5 120 73 43 41 90 77 107 81 26 7 34 3 58
-26 15 -18 30 -43 33 -55 15 -59 -35 -121 -118 -149 -35 -11 -53 -24 -64 -46
-34 -66 11 -138 88 -138 45 0 84 32 93 77 16 75 28 106 56 138 35 40 87 59
135 51 28 -6 38 -15 59 -56 33 -65 33 -105 -2 -133 -89 -73 -103 -93 -103
-144 0 -100 90 -158 183 -119 75 31 86 98 47 293 -12 61 -20 123 -16 137 8 32
64 53 97 36 20 -11 21 -17 15 -99 -6 -73 -4 -91 12 -120 47 -86 177 -93 225
-12 22 37 22 105 0 142 -18 30 -67 59 -102 59 -29 0 -44 35 -39 92 6 62 35
102 75 106 39 4 102 -43 161 -121 54 -70 100 -89 165 -66 107 37 116 177 15
239 -40 24 -75 25 -128 4 -52 -21 -101 -12 -163 29 -37 25 -47 37 -42 52 2 11
5 42 5 68 0 45 2 49 35 63 22 9 70 14 133 14 114 0 146 15 158 75 8 46 -2 73
-36 90 -56 29 -94 20 -147 -34 -27 -27 -61 -53 -76 -56 -44 -12 -93 2 -105 30
-6 13 -27 42 -47 63 -23 26 -33 45 -29 56 6 16 16 20 85 31 20 3 45 15 57 28
65 70 50 169 -33 209 -57 28 -107 18 -153 -28 -35 -35 -35 -35 -29 -105 7 -85
1 -90 -85 -63 -52 15 -63 23 -74 51 -8 18 -14 49 -14 70 0 38 35 123 51 123
17 0 49 65 49 100 0 47 -33 98 -75 116 -43 17 -71 17 -112 -1z m47 -590 c48
-25 70 -62 70 -117 0 -43 -5 -55 -33 -83 -75 -75 -194 -44 -216 57 -24 105 84
192 179 143z m-79 -335 c23 -23 29 -35 23 -52 -12 -40 -25 -49 -68 -46 -31 2
-43 9 -52 26 -16 32 -3 74 27 89 34 18 37 17 70 -17z m236 0 c61 -37 60 -123
-1 -161 -41 -26 -83 -18 -118 21 -34 37 -36 77 -7 114 38 48 77 56 126 26z"/>
</g>
</svg>
