<?xml version="1.0" standalone="no"?>
<!DOCTYPE svg PUBLIC "-//W3C//DTD SVG 20010904//EN"
 "http://www.w3.org/TR/2001/REC-SVG-20010904/DTD/svg10.dtd">
<svg version="1.0" xmlns="http://www.w3.org/2000/svg"
 width="265.000000pt" height="190.000000pt" viewBox="0 0 265.000000 190.000000"
 preserveAspectRatio="xMidYMid meet">

<g transform="translate(0.000000,190.000000) scale(0.100000,-0.100000)"
fill="#000000" stroke="none">
<path d="M1080 1661 c-164 -103 -241 -295 -196 -486 8 -33 14 -60 13 -60 -1
-1 -29 -6 -62 -13 -218 -44 -376 -261 -345 -474 l6 -43 5 56 c10 107 83 209
184 259 41 20 65 25 135 25 100 0 160 -24 226 -91 l41 -41 47 24 c38 19 46 28
46 51 0 36 34 90 65 104 21 10 25 18 25 57 l0 46 -59 17 c-43 13 -74 31 -114
68 -149 137 -151 349 -5 491 22 21 39 39 37 39 -2 0 -24 -13 -49 -29z"/>
<path d="M1547 1625 c110 -124 111 -315 2 -438 -44 -50 -145 -107 -191 -107
-27 0 -28 -2 -28 -50 0 -36 4 -50 14 -50 24 0 76 -68 76 -100 0 -26 7 -33 59
-59 l58 -30 39 40 c21 22 64 52 94 67 73 36 190 38 262 5 102 -47 178 -148
197 -263 l9 -55 1 70 c1 83 -19 169 -56 237 -59 108 -203 204 -322 215 l-58 6
15 49 c10 35 13 81 10 147 -3 84 -8 105 -38 166 -33 69 -110 159 -160 185 -19
10 -15 2 17 -35z"/>
<path d="M1232 1319 c-47 -9 -135 -47 -167 -72 -20 -16 -20 -16 12 -48 l32
-32 63 28 c92 42 181 41 269 -2 l64 -32 32 31 c26 25 30 34 21 46 -21 25 -122
70 -183 81 -66 12 -82 12 -143 0z"/>
<path d="M1708 897 c-43 -17 -47 -22 -53 -60 -11 -70 -51 -144 -104 -196 -42
-39 -51 -54 -51 -82 0 -64 12 -68 76 -24 55 38 116 109 147 170 21 42 39 134
35 176 l-3 36 -47 -20z"/>
<path d="M892 832 c7 -125 67 -229 174 -303 l42 -28 6 22 c13 50 6 69 -38 109
-53 46 -93 122 -102 194 -6 46 -10 53 -40 68 -19 9 -37 16 -41 16 -3 0 -4 -35
-1 -78z"/>
<path d="M1370 762 c-28 -19 -44 -23 -78 -19 -24 3 -51 12 -61 21 -23 21 -33
20 -76 -5 -30 -18 -35 -26 -30 -43 4 -12 10 -57 12 -101 6 -105 -18 -175 -88
-246 -70 -72 -123 -94 -232 -94 -84 0 -87 -1 -55 -14 104 -42 234 -37 342 14
68 32 155 113 186 174 l22 44 28 -49 c83 -146 262 -233 428 -207 37 6 82 17
100 24 32 13 29 14 -60 14 -81 0 -99 4 -143 27 -61 32 -130 104 -156 163 -33
74 -35 183 -5 255 5 12 -8 22 -46 41 l-53 26 -35 -25z"/>
</g>
</svg>
