<?xml version="1.0" standalone="no"?>
<!DOCTYPE svg PUBLIC "-//W3C//DTD SVG 20010904//EN"
 "http://www.w3.org/TR/2001/REC-SVG-20010904/DTD/svg10.dtd">
<svg version="1.0" xmlns="http://www.w3.org/2000/svg"
 width="299.000000pt" height="169.000000pt" viewBox="0 0 299.000000 169.000000"
 preserveAspectRatio="xMidYMid meet">

<g transform="translate(0.000000,169.000000) scale(0.100000,-0.100000)"
fill="#000000" stroke="none">
<path d="M0 845 l0 -845 1495 0 1495 0 0 845 0 845 -1495 0 -1495 0 0 -845z
m995 775 c15 -16 28 -20 65 -17 26 2 52 7 59 11 13 9 43 -8 91 -53 27 -24 37
-28 52 -20 22 12 42 7 104 -28 50 -28 154 -44 154 -23 0 6 11 27 24 48 24 39
39 44 106 41 119 -5 178 -1 233 15 17 5 39 4 58 -4 23 -10 33 -10 42 -1 20 20
34 12 51 -29 16 -41 36 -53 37 -22 0 13 2 12 9 -5 5 -12 21 -29 35 -39 14 -9
23 -19 20 -22 -10 -11 29 -42 53 -42 32 0 62 -26 62 -54 0 -12 7 -29 15 -40 8
-10 12 -30 10 -45 -2 -14 -7 -73 -9 -131 -5 -81 -2 -111 9 -130 8 -14 18 -32
22 -40 11 -24 30 -40 47 -40 22 0 20 -27 -1 -34 -10 -4 -40 -26 -66 -51 -26
-25 -50 -45 -53 -45 -3 0 -22 -18 -43 -40 -28 -30 -46 -40 -68 -40 -21 0 -49
-14 -84 -40 -30 -22 -56 -40 -60 -40 -12 0 -29 -87 -29 -144 0 -58 -31 -134
-76 -189 -13 -15 -26 -44 -30 -65 -8 -44 -39 -98 -64 -112 -28 -15 -73 -12
-98 6 -22 15 -23 17 -5 36 17 19 17 19 -11 12 -48 -12 -105 -55 -117 -89 -12
-31 -13 -32 -75 -30 -34 0 -69 7 -78 14 -8 7 -19 10 -24 7 -6 -3 -12 3 -15 14
-3 13 -14 20 -31 21 -34 2 -39 3 -53 12 -7 5 -17 5 -23 2 -11 -7 -59 25 -103
67 -15 15 -43 30 -61 34 -29 5 -35 11 -42 42 -4 21 -8 69 -8 107 -1 48 -7 81
-20 105 -31 58 -36 69 -36 85 0 8 -21 37 -47 65 -46 49 -47 50 -95 45 -49 -6
-52 -3 -49 35 2 17 -30 55 -50 62 -10 3 -10 14 -2 46 8 31 8 46 0 55 -38 41
-61 85 -60 114 1 18 -3 33 -8 33 -4 0 -6 -8 -2 -17 4 -13 3 -15 -5 -8 -8 8 -9
21 -2 46 8 29 6 45 -10 82 -19 43 -20 49 -5 83 8 20 13 40 10 44 -3 5 6 17 20
28 14 11 25 24 25 28 0 13 63 63 72 58 4 -3 3 -14 -2 -25 -15 -27 -2 -24 22 6
11 14 26 25 34 25 8 0 14 5 14 11 0 5 5 7 10 4 6 -3 10 -1 10 6 0 6 8 18 18
25 12 9 14 16 6 24 -8 8 -14 7 -24 -5 -7 -8 -16 -15 -21 -15 -18 0 -8 41 14
63 12 12 31 36 41 52 47 76 78 91 111 55z m-205 -210 c-13 -24 -16 -25 -24 -4
-3 8 -2 12 3 9 5 -3 12 -1 16 5 11 19 16 10 5 -10z"/>
<path d="M1716 1517 c-60 -18 -68 -40 -27 -77 l33 -31 46 29 c45 27 48 34 43
82 -1 13 -46 12 -95 -3z"/>
<path d="M1172 1506 c7 -8 15 -12 17 -11 5 6 -10 25 -20 25 -5 0 -4 -6 3 -14z"/>
<path d="M1220 1511 c0 -14 18 -23 31 -15 8 4 7 9 -2 15 -18 11 -29 11 -29 0z"/>
<path d="M1892 1513 c-6 -2 -10 -9 -6 -14 8 -14 31 -11 38 6 5 15 -7 18 -32 8z"/>
<path d="M1271 1478 c-10 -28 3 -58 26 -58 13 0 14 -3 5 -12 -8 -8 -15 -8 -28
3 -10 8 -15 9 -11 2 4 -6 1 -13 -5 -16 -10 -3 -6 -17 12 -53 13 -27 26 -53 28
-57 3 -5 -6 -8 -19 -6 -28 3 -81 -20 -73 -32 2 -4 -1 -11 -9 -16 -18 -11 -47
-59 -47 -78 0 -10 24 3 72 40 40 30 77 53 83 52 6 -2 10 -42 9 -93 0 -76 -4
-96 -26 -139 -27 -52 -68 -95 -129 -135 -31 -20 -35 -26 -23 -38 15 -15 16
-16 18 -64 2 -22 -4 -38 -17 -49 -14 -12 -18 -22 -12 -35 4 -11 9 -24 10 -30
7 -33 17 -54 26 -54 5 0 18 -9 28 -19 19 -19 54 -41 65 -41 17 0 2 28 -24 45
-16 11 -30 26 -30 34 0 8 22 36 49 62 87 83 216 109 324 64 20 -8 62 -36 93
-61 31 -26 53 -41 49 -34 -5 8 -1 18 10 27 15 10 16 16 7 25 -35 35 7 52 43
18 l21 -20 37 31 c20 17 37 38 37 48 0 9 5 22 11 28 9 9 5 14 -14 18 -24 7
-26 11 -29 73 -2 41 -8 67 -15 70 -10 3 -13 -14 -13 -62 l0 -66 -40 20 c-62
32 -103 74 -136 137 -25 49 -29 70 -29 135 0 42 3 80 7 84 4 4 26 -5 48 -20
22 -15 45 -24 50 -21 6 3 7 -1 4 -10 -5 -11 -2 -14 10 -9 14 5 12 11 -11 38
-16 18 -40 40 -55 49 -32 18 -37 37 -10 37 12 0 13 3 5 8 -9 6 -6 17 12 44 29
44 30 48 9 48 -9 0 -23 8 -30 18 -13 16 -14 16 -20 -5 -3 -13 -10 -23 -15 -23
-5 0 -9 -10 -9 -23 0 -24 -38 -66 -80 -87 -14 -7 -42 -27 -63 -44 -38 -30 -39
-30 -53 -11 -10 14 -13 41 -11 98 4 76 3 81 -26 113 -16 19 -42 44 -58 55
l-29 20 -9 -23z"/>
<path d="M1951 1486 c-9 -11 -6 -15 16 -20 16 -4 49 -18 76 -32 26 -13 47 -21
47 -18 0 4 10 -1 22 -12 13 -11 18 -13 13 -4 -22 36 -114 99 -146 100 -9 0
-22 -6 -28 -14z"/>
<path d="M1998 1425 c-5 -6 -24 -11 -48 -14 -3 -1 -31 -25 -62 -53 -30 -29
-71 -68 -92 -86 -40 -36 -43 -44 -21 -62 8 -7 15 -20 15 -29 0 -9 15 -25 34
-35 35 -19 47 -40 50 -88 2 -41 16 -48 92 -51 63 -2 69 0 72 19 2 12 14 26 28
32 13 7 24 18 24 27 0 22 21 19 27 -4 8 -30 29 -32 44 -4 12 22 10 30 -16 76
-23 40 -30 66 -31 112 -2 80 -13 125 -31 125 -8 0 -12 4 -9 9 6 9 -16 21 -37
21 -7 0 -6 -4 3 -10 13 -8 13 -10 -2 -10 -9 0 -21 7 -26 15 -4 9 -11 13 -14
10z"/>
<path d="M918 1395 c-6 -13 -15 -22 -21 -18 -6 3 -7 1 -3 -5 6 -10 -41 -63
-96 -108 -25 -20 -26 -24 -21 -95 3 -41 6 -92 7 -114 1 -37 4 -42 47 -63 39
-19 50 -21 71 -11 19 8 31 8 46 0 33 -17 40 -13 45 27 11 79 29 148 43 163 8
8 14 19 14 23 0 17 72 106 86 106 8 0 14 -4 14 -10 0 -5 5 -10 10 -10 6 0 10
15 10 34 0 25 -8 43 -31 65 -37 38 -49 38 -89 4 -27 -22 -36 -25 -58 -17 -20
7 -26 16 -25 32 4 32 -34 29 -49 -3z m62 -45 c0 -5 -15 -10 -32 -10 -25 0 -29
3 -18 10 20 13 50 13 50 0z"/>
<path d="M2150 1363 c0 -4 5 -15 10 -23 8 -13 10 -13 10 2 0 9 -4 20 -10 23
-5 3 -10 3 -10 -2z"/>
<path d="M855 1350 c-4 -6 -11 -7 -17 -4 -7 4 -8 2 -4 -5 6 -9 11 -9 22 0 14
11 18 19 10 19 -3 0 -8 -5 -11 -10z"/>
<path d="M1735 1330 c3 -5 10 -10 16 -10 5 0 9 5 9 10 0 6 -7 10 -16 10 -8 0
-12 -4 -9 -10z"/>
<path d="M1690 1298 l0 -32 21 23 c18 19 19 25 8 32 -23 15 -29 10 -29 -23z"/>
<path d="M694 1076 c3 -43 9 -83 15 -89 6 -6 11 -18 11 -26 0 -17 47 -81 61
-81 16 0 10 26 -13 55 l-21 28 22 -12 c12 -7 27 -23 33 -37 6 -13 15 -24 20
-24 15 0 8 13 -32 56 -42 45 -57 74 -84 159 l-16 50 4 -79z"/>
<path d="M1228 1143 c-10 -3 -18 -11 -18 -19 0 -8 -9 -27 -19 -42 -11 -15 -21
-34 -22 -42 -3 -29 1 -50 11 -50 16 0 60 50 60 70 0 10 5 22 10 25 12 7 14 52
3 58 -5 2 -16 2 -25 0z"/>
<path d="M1750 1146 c0 -2 8 -10 18 -17 15 -13 16 -12 3 4 -13 16 -21 21 -21
13z"/>
<path d="M1090 1080 c-14 -20 -25 -52 -28 -84 -5 -64 7 -53 37 32 27 76 23 97
-9 52z"/>
<path d="M2205 1050 c-3 -6 -3 -20 0 -31 6 -17 9 -19 16 -8 12 19 11 49 0 49
-6 0 -13 -5 -16 -10z"/>
<path d="M2086 1041 c-6 -10 22 -37 29 -29 8 7 -5 38 -15 38 -5 0 -11 -4 -14
-9z"/>
<path d="M2036 992 c-3 -6 -1 -14 5 -17 15 -10 25 3 12 16 -7 7 -13 7 -17 1z"/>
<path d="M1920 971 c-15 -4 -25 -14 -24 -24 2 -48 5 -58 19 -63 23 -9 65 5 65
21 0 8 3 15 8 16 52 5 58 13 33 38 -21 21 -54 25 -101 12z"/>
<path d="M2052 861 c-29 -18 -58 -111 -34 -111 4 0 23 13 42 30 33 28 34 30
20 59 -11 21 -19 28 -28 22z"/>
<path d="M1928 823 c7 -3 16 -2 19 1 4 3 -2 6 -13 5 -11 0 -14 -3 -6 -6z"/>
<path d="M948 803 c-19 -22 -7 -63 19 -63 13 0 14 3 5 12 -17 17 -15 38 4 38
9 0 14 5 12 12 -7 19 -23 20 -40 1z"/>
<path d="M1445 724 c-74 -16 -108 -30 -125 -52 -18 -22 -29 -65 -13 -49 3 4
11 0 17 -8 19 -25 143 -31 212 -10 75 23 81 28 64 61 -24 44 -94 70 -155 58z"/>
<path d="M1690 620 c-20 -15 -22 -21 -13 -31 10 -10 18 -8 38 11 13 12 22 27
19 31 -8 13 -16 11 -44 -11z"/>
<path d="M1276 552 c-13 -12 -4 -24 29 -38 42 -17 84 -19 68 -3 -17 17 -90 48
-97 41z"/>
<path d="M1538 538 c-39 -10 -53 -38 -19 -38 32 0 81 22 81 36 0 16 -9 16 -62
2z"/>
<path d="M1060 520 c0 -11 4 -20 9 -20 5 0 7 9 4 20 -3 11 -7 20 -9 20 -2 0
-4 -9 -4 -20z"/>
<path d="M1605 491 c-11 -11 -34 -28 -51 -38 -17 -10 -42 -25 -55 -35 -13 -9
-39 -19 -57 -23 -29 -6 -34 -4 -39 15 -9 33 -48 43 -88 24 -19 -9 -38 -13 -44
-10 -11 7 -17 -10 -27 -77 -6 -42 -3 -51 17 -73 12 -13 31 -24 41 -24 11 0 38
-11 61 -25 40 -23 45 -23 82 -10 35 12 41 12 52 -1 18 -24 75 -14 90 15 6 13
18 28 26 33 9 5 13 16 10 28 -4 15 7 33 40 65 52 52 52 66 -2 119 -36 35 -37
36 -56 17z"/>
<path d="M1781 494 c13 -16 29 -19 29 -5 0 5 -9 11 -21 14 -16 4 -18 3 -8 -9z"/>
<path d="M1060 481 c0 -23 24 -71 31 -64 11 11 -8 73 -22 73 -5 0 -9 -4 -9 -9z"/>
<path d="M1175 280 c-6 -10 5 -25 36 -52 48 -43 137 -93 147 -83 4 3 0 10 -8
15 -78 44 -150 96 -157 113 -8 16 -11 18 -18 7z"/>
</g>
</svg>
