<?xml version="1.0" standalone="no"?>
<!DOCTYPE svg PUBLIC "-//W3C//DTD SVG 20010904//EN"
 "http://www.w3.org/TR/2001/REC-SVG-20010904/DTD/svg10.dtd">
<svg version="1.0" xmlns="http://www.w3.org/2000/svg"
 width="331.000000pt" height="152.000000pt" viewBox="0 0 331.000000 152.000000"
 preserveAspectRatio="xMidYMid meet">

<g transform="translate(0.000000,152.000000) scale(0.100000,-0.100000)"
fill="#000000" stroke="none">
<path d="M1132 1467 l-53 -54 22 -45 c19 -40 28 -47 74 -62 65 -20 81 -48 64
-107 -7 -21 -18 -39 -26 -39 -7 0 -25 24 -40 54 -25 51 -29 54 -84 70 -57 15
-58 17 -99 90 -29 54 -39 82 -35 99 8 29 -16 43 -46 27 -24 -14 -25 -36 0 -43
10 -2 37 -39 62 -86 l44 -82 59 -16 c55 -16 60 -20 83 -68 14 -28 35 -55 47
-61 28 -12 33 -52 9 -69 -10 -8 -31 -15 -48 -15 -16 0 -54 -7 -83 -14 -60 -16
-78 -13 -85 15 -4 13 -14 19 -35 19 -36 0 -60 -24 -43 -43 13 -17 123 -20 161
-5 14 6 60 11 102 12 60 2 78 -1 83 -12 10 -27 -30 -52 -83 -52 -27 0 -70 -7
-96 -16 -37 -13 -53 -14 -72 -5 -20 9 -42 5 -122 -20 l-99 -31 -200 141 c-138
97 -200 146 -199 159 1 13 -7 17 -34 17 -29 0 -36 -4 -38 -22 -3 -19 1 -23 24
-23 23 0 194 -112 415 -273 26 -19 27 -19 124 13 82 26 103 29 125 20 22 -9
35 -8 66 6 26 11 67 17 126 18 60 0 89 4 92 13 3 7 -1 10 -10 6 -9 -3 -14 1
-14 12 0 9 4 14 9 10 6 -3 6 6 1 24 -6 21 -5 31 4 34 9 4 13 -5 14 -26 1 -29
30 -97 42 -97 3 0 4 16 2 36 -3 27 -1 35 8 32 7 -2 14 -11 15 -19 2 -8 12 -32
23 -53 17 -32 21 -35 24 -16 3 23 21 29 26 8 2 -9 0 -8 -7 2 -7 9 -11 10 -11
3 0 -6 5 -15 10 -18 6 -3 10 -15 10 -27 0 -11 8 -22 19 -25 11 -3 22 -11 25
-18 2 -8 15 -11 30 -8 20 4 26 1 26 -12 0 -13 -6 -16 -25 -13 -14 3 -25 2 -25
-2 0 -4 -35 -13 -77 -19 -78 -12 -417 -124 -440 -145 -7 -6 -27 -36 -45 -66
l-33 -54 -119 -43 c-91 -32 -123 -40 -137 -32 -39 20 -93 -35 -63 -65 23 -24
50 -19 76 12 16 21 50 38 118 62 135 47 145 53 181 116 36 64 29 60 254 139
139 49 247 72 303 66 13 -1 29 3 37 9 10 9 16 7 24 -7 10 -17 10 -16 11 4 0
28 15 37 37 23 15 -9 14 -10 -7 -5 -25 5 -25 5 -2 -6 24 -13 30 -44 10 -52 -7
-3 3 -3 22 0 19 3 38 10 41 16 10 14 49 -2 49 -20 0 -12 8 -14 36 -10 41 7 69
29 90 69 16 31 19 51 4 28 -7 -11 -10 -12 -10 -2 0 8 9 16 21 19 15 4 20 12
16 29 -2 14 0 21 6 17 5 -3 8 0 5 7 -11 34 123 111 294 169 149 51 148 51 148
69 0 9 12 27 28 39 27 23 27 23 7 38 -27 22 -59 15 -63 -12 -2 -13 1 -23 6
-23 5 0 7 -11 5 -24 -4 -21 -23 -31 -137 -71 -72 -26 -163 -65 -202 -86 -39
-22 -75 -39 -80 -39 -5 0 -15 14 -21 31 -8 21 -16 28 -25 23 -10 -6 -10 -4 1
9 7 9 17 14 22 11 5 -2 11 7 15 21 3 14 10 25 15 25 5 0 9 8 9 18 0 24 83 78
165 105 67 23 71 26 86 68 16 42 20 45 88 69 53 19 77 34 94 57 12 18 31 33
42 35 12 2 20 11 20 23 0 15 -8 21 -34 23 -31 3 -33 1 -28 -19 11 -42 -34 -86
-113 -110 -66 -20 -70 -23 -81 -60 -15 -48 -17 -50 -99 -79 -36 -12 -86 -38
-111 -56 -29 -21 -53 -32 -63 -28 -20 8 -21 30 -1 38 8 3 15 11 15 19 0 15 90
70 142 87 31 9 40 18 49 50 11 38 15 40 90 65 70 24 81 31 106 71 15 24 36 44
45 44 9 0 20 5 23 10 4 6 -7 10 -24 10 -17 0 -31 -4 -31 -9 0 -4 -15 -28 -34
-52 -29 -39 -42 -47 -108 -66 -72 -21 -75 -23 -84 -60 -7 -31 -16 -40 -49 -53
-22 -8 -64 -30 -93 -47 -61 -38 -72 -40 -72 -14 0 11 -2 26 -5 33 -4 10 17 25
69 49 57 26 77 40 85 62 7 19 17 27 34 27 31 0 51 22 35 38 -23 23 -56 14 -72
-20 -9 -17 -16 -37 -16 -44 0 -8 -32 -30 -71 -49 l-71 -36 -39 45 c-22 25 -48
48 -59 51 -24 8 -94 104 -92 128 0 9 -3 17 -9 17 -17 0 -9 -41 16 -77 13 -20
23 -39 20 -41 -2 -2 -21 -1 -42 2 -44 8 -88 61 -72 87 12 18 11 29 -1 29 -19
0 -23 -50 -5 -76 14 -22 15 -28 4 -35 -28 -17 -64 -9 -90 20 -16 19 -39 31
-66 36 -28 4 -47 15 -58 31 -8 13 -20 24 -26 24 -6 0 -1 -13 10 -29 15 -21 33
-31 62 -36 36 -6 79 -37 79 -56 0 -4 -15 -12 -32 -18 -28 -10 -35 -9 -48 7 -8
11 -36 25 -63 32 -42 11 -47 15 -45 39 3 23 -1 26 -28 29 -21 2 -33 -2 -37
-12 -7 -17 57 -58 108 -70 17 -4 38 -15 48 -23 16 -15 15 -17 -15 -36 l-32
-19 -19 26 c-10 14 -27 26 -38 26 -11 0 -33 9 -48 21 -23 17 -32 19 -50 10
-44 -24 -16 -56 39 -45 42 9 75 -2 87 -28 9 -20 6 -29 -17 -56 l-27 -32 -11
24 c-7 16 -27 29 -62 41 -42 14 -54 24 -71 57 l-21 41 53 53 c29 30 49 54 43
54 -5 0 -33 -24 -62 -53z m-192 13 c0 -5 -7 -10 -15 -10 -8 0 -15 5 -15 10 0
6 7 10 15 10 8 0 15 -4 15 -10z m330 -10 c0 -5 -4 -10 -10 -10 -5 0 -10 5 -10
10 0 6 5 10 10 10 6 0 10 -4 10 -10z m1130 -10 c0 -5 -7 -10 -15 -10 -8 0 -15
5 -15 10 0 6 7 10 15 10 8 0 15 -4 15 -10z m-345 -40 c3 -5 -1 -10 -10 -10 -9
0 -13 5 -10 10 3 6 8 10 10 10 2 0 7 -4 10 -10z m-845 -30 c0 -5 -7 -10 -16
-10 -8 0 -12 5 -9 10 3 6 10 10 16 10 5 0 9 -4 9 -10z m-840 -184 c0 -11 -19
-15 -25 -6 -3 5 1 10 9 10 9 0 16 -2 16 -4z m1990 -6 c0 -5 -7 -10 -15 -10 -8
0 -15 5 -15 10 0 6 7 10 15 10 8 0 15 -4 15 -10z m-592 -62 c19 -19 15 -26
-18 -33 -22 -5 -39 -1 -58 11 -25 16 -25 18 -7 25 31 12 70 10 83 -3z m-516
-70 c-6 -6 -7 0 -4 19 5 21 7 23 10 9 2 -10 0 -22 -6 -28z m286 -10 c19 -19
14 -27 -24 -34 -52 -10 -114 27 -66 39 34 9 78 7 90 -5z m-568 -8 c0 -5 -7
-10 -15 -10 -8 0 -15 5 -15 10 0 6 7 10 15 10 8 0 15 -4 15 -10z m860 -109 c0
-6 -4 -13 -10 -16 -5 -3 -10 1 -10 9 0 9 5 16 10 16 6 0 10 -4 10 -9z m-300
-41 c-10 -6 -11 -10 -2 -10 6 0 12 -9 12 -20 0 -15 -7 -20 -25 -20 -21 0 -25
5 -25 30 0 26 4 30 28 30 21 0 24 -2 12 -10z m200 -120 c13 -9 13 -10 0 -10
-8 0 -22 5 -30 10 -13 9 -13 10 0 10 8 0 22 -5 30 -10z m-1100 -365 c0 -8 -7
-15 -15 -15 -16 0 -20 12 -8 23 11 12 23 8 23 -8z"/>
<path d="M2960 1356 c0 -8 -12 -19 -27 -24 -16 -5 -118 -42 -228 -81 -110 -39
-219 -79 -243 -87 -34 -13 -48 -25 -64 -58 -20 -43 -21 -43 -171 -97 -120 -43
-164 -64 -220 -107 -44 -33 -77 -50 -88 -47 -24 8 -35 -26 -14 -42 20 -14 45
-7 45 12 0 14 150 129 157 121 11 -11 -51 -108 -93 -145 -50 -43 -78 -50 -110
-26 -23 17 -34 19 -34 4 0 -5 4 -7 10 -4 6 3 7 -1 3 -10 -4 -13 -8 -14 -14 -4
-4 8 -11 10 -15 6 -4 -4 0 -15 9 -24 15 -15 22 -16 49 -5 45 17 49 5 10 -29
-29 -26 -39 -29 -105 -29 -40 0 -88 5 -107 10 -22 6 -36 7 -38 0 -5 -15 -68
-23 -89 -11 -16 9 -15 10 10 11 33 0 37 25 5 34 -16 4 -28 -1 -38 -15 -14 -17
-20 -18 -44 -9 -46 17 -107 16 -121 -3 -7 -9 -25 -17 -40 -17 -25 0 -281 -87
-328 -112 -9 -5 -28 -31 -42 -58 -28 -55 -34 -59 -133 -95 -46 -16 -80 -23
-100 -19 -43 9 -74 -11 -70 -44 2 -22 9 -28 35 -30 25 -2 35 2 48 21 11 17 44
35 105 57 96 35 102 39 140 108 25 45 27 46 169 99 80 29 157 53 172 53 25 0
26 -2 16 -24 -7 -14 -20 -27 -29 -30 -10 -2 -18 -10 -18 -18 0 -8 -52 -32
-134 -62 -118 -42 -136 -52 -146 -77 -7 -16 -27 -37 -46 -48 -36 -22 -44 -50
-19 -71 32 -27 102 22 77 53 -7 8 -5 24 6 47 16 31 28 38 142 81 69 26 141 49
160 50 33 4 35 2 33 -26 -3 -32 -32 -61 -73 -71 -14 -4 -56 -17 -95 -31 -67
-23 -71 -27 -100 -79 -28 -53 -34 -57 -105 -85 -73 -28 -76 -29 -107 -12 -21
11 -33 26 -35 43 -2 20 -9 26 -35 28 -25 3 -35 -2 -49 -23 -16 -24 -16 -27 -1
-42 9 -9 33 -17 54 -18 21 -1 52 -8 69 -15 28 -12 38 -10 116 20 82 33 86 36
114 89 29 55 30 56 111 84 69 23 86 26 102 15 15 -9 23 -10 32 -1 6 6 27 9 48
6 33 -5 41 -1 70 32 35 40 61 41 61 2 0 -21 -17 -29 -171 -88 l-172 -64 -34
-72 c-29 -61 -40 -74 -72 -86 -23 -10 -53 -13 -77 -10 -45 6 -68 -11 -62 -48
7 -48 82 -52 94 -5 4 18 19 29 54 42 45 16 50 22 82 88 l33 71 169 67 c92 37
180 68 195 70 16 2 27 10 29 21 3 15 -2 18 -24 15 -36 -4 -43 19 -7 25 27 4
27 4 -4 6 -26 1 -33 5 -33 21 0 16 7 20 30 20 20 0 30 -5 30 -15 0 -11 11 -15
40 -15 22 0 40 -4 40 -9 0 -5 10 -7 21 -4 16 4 20 2 17 -8 -3 -8 -11 -14 -19
-14 -8 0 -16 -11 -19 -24 -4 -19 -25 -32 -110 -68 -58 -24 -143 -64 -190 -87
l-85 -43 -39 -79 c-41 -82 -63 -184 -40 -184 6 0 14 22 18 51 4 28 23 83 43
123 l36 73 101 51 c56 28 115 56 131 62 l30 11 -32 -26 c-18 -15 -33 -34 -33
-43 0 -10 -33 -43 -74 -75 -68 -54 -74 -61 -80 -104 -9 -64 -8 -123 2 -123 5
0 14 35 20 77 10 76 12 79 59 120 l48 42 3 -37 c2 -32 8 -40 32 -49 17 -6 30
-8 30 -3 0 4 -11 11 -25 14 -16 4 -25 13 -25 27 0 16 4 19 23 14 22 -7 22 -7
2 10 -18 15 -18 16 -2 11 10 -3 23 -6 28 -6 6 0 9 -6 8 -12 -5 -44 0 -50 36
-44 26 5 40 3 52 -9 12 -12 26 -15 52 -10 43 8 57 24 66 76 6 32 10 37 23 30
10 -4 22 -7 28 -4 25 9 37 -26 27 -80 -8 -48 -7 -56 21 -109 17 -32 37 -58 44
-58 17 0 16 3 -18 63 -27 49 -29 58 -21 102 9 48 -1 95 -21 95 -4 0 -8 6 -8
14 0 16 -45 48 -54 39 -10 -10 -7 -25 4 -18 6 3 10 2 10 -4 0 -21 -20 -21 -24
1 -12 51 -10 82 3 73 6 -3 14 2 18 10 8 14 12 13 28 -5 10 -11 31 -20 46 -20
38 0 68 -56 62 -115 -4 -34 3 -54 49 -135 29 -52 61 -96 70 -98 13 -2 3 22
-37 90 -46 79 -55 101 -55 143 0 50 -27 111 -56 128 -8 4 -14 13 -14 20 0 7
-9 18 -19 24 -16 10 -22 9 -33 -5 -12 -15 -11 -16 5 -3 18 14 23 5 8 -17 -6
-11 -10 -11 -18 0 -16 19 -20 74 -6 71 8 -2 10 4 6 15 -6 14 -4 15 9 4 13 -10
17 -10 22 5 4 11 10 13 14 7 5 -7 15 -6 32 4 l25 14 -29 -7 c-26 -5 -28 -4
-22 17 3 13 6 29 6 36 0 6 9 12 20 12 15 0 20 -7 20 -25 0 -18 5 -25 19 -25
11 0 27 -3 35 -6 12 -4 19 2 27 24 8 24 15 29 32 24 20 -5 20 -6 1 -13 -16 -7
-17 -8 -1 -8 30 -2 21 -39 -10 -43 -16 -2 3 -4 41 -4 62 1 70 3 77 24 5 12 14
22 21 22 16 0 47 -20 32 -20 -7 0 -9 -11 -6 -25 4 -24 2 -25 -29 -19 -19 4
-31 4 -27 0 3 -5 22 -9 40 -11 19 -2 52 -15 74 -30 26 -18 48 -25 67 -22 15 2
32 -2 38 -10 6 -7 17 -13 23 -13 6 0 25 -21 41 -46 24 -36 46 -54 106 -84 74
-37 80 -44 150 -144 41 -58 80 -105 87 -106 20 0 14 10 -66 120 -72 98 -82
107 -149 141 -75 37 -133 97 -133 138 0 10 -12 27 -26 36 -26 17 -27 17 -21
-4 3 -11 1 -19 -4 -15 -17 10 -9 37 22 66 20 19 31 40 31 59 1 20 4 26 9 17 6
-8 9 -9 9 -2 0 6 12 17 28 23 23 9 78 -5 420 -108 258 -78 392 -114 392 -106
0 7 -12 16 -27 19 -16 4 -194 57 -398 117 -298 89 -373 108 -391 100 -20 -9
-23 -7 -26 12 -2 12 -14 27 -28 34 l-24 12 29 12 c27 10 74 -1 448 -109 230
-66 416 -114 414 -108 -6 17 -817 247 -847 240 -14 -4 -46 -6 -72 -5 -27 0
-73 -9 -111 -24 -61 -22 -72 -24 -149 -15 -46 6 -85 10 -87 10 -2 0 2 7 9 15
11 13 10 14 -6 8 -17 -6 -18 -5 -5 11 13 16 15 16 23 1 11 -19 18 -15 58 35
19 23 25 37 16 34 -23 -9 -20 3 4 16 11 6 20 7 19 3 -6 -37 1 -43 56 -43 46 0
57 4 70 24 8 13 13 30 10 39 -5 12 18 25 106 59 95 36 115 48 132 76 24 41 17
38 259 128 130 49 219 77 248 78 38 1 45 4 45 21 0 12 -10 23 -28 29 -24 9
-31 7 -45 -12 -12 -14 -90 -49 -242 -106 -212 -79 -226 -86 -251 -122 -23 -33
-41 -44 -117 -72 l-89 -33 -38 25 -37 26 28 10 c177 64 190 71 210 112 l20 40
244 89 c146 53 260 89 282 89 31 0 38 4 38 19 0 33 -63 44 -79 13 -7 -12 -93
-48 -257 -108 l-246 -89 -21 -42 c-21 -44 -19 -43 -192 -104 l-50 -17 -17 26
c-10 15 -18 29 -18 32 0 3 46 21 102 40 83 29 104 40 117 64 9 15 23 37 31 47
22 27 514 203 562 201 41 -3 56 11 38 33 -16 19 -70 20 -70 1z m45 -6 c3 -5
-1 -10 -10 -10 -9 0 -13 5 -10 10 3 6 8 10 10 10 2 0 7 -4 10 -10z m35 -84 c0
-11 -19 -15 -25 -6 -3 5 1 10 9 10 9 0 16 -2 16 -4z m20 -96 c0 -5 -4 -10 -9
-10 -6 0 -13 5 -16 10 -3 6 1 10 9 10 9 0 16 -4 16 -10z m-1140 -330 c0 -5 -5
-10 -11 -10 -5 0 -7 5 -4 10 3 6 8 10 11 10 2 0 4 -4 4 -10z m479 -174 c-2 -2
-26 -6 -54 -10 -34 -4 -43 -3 -30 3 19 9 93 15 84 7z m-1018 -58 c-3 -21 -6
-26 -9 -15 -3 17 3 47 11 47 2 0 1 -15 -2 -32z m382 -35 c-7 -2 -21 -2 -30 0
-10 3 -4 5 12 5 17 0 24 -2 18 -5z m-150 -10 c-7 -2 -19 -2 -25 0 -7 3 -2 5
12 5 14 0 19 -2 13 -5z m157 -23 c0 -16 -7 -20 -30 -20 -18 0 -30 5 -30 13 0
20 10 27 37 27 16 0 23 -6 23 -20z m-361 -57 c0 -25 -1 -25 -8 -8 -5 11 -7 23
-4 28 8 14 13 7 12 -20z m-384 -113 c3 -6 -1 -13 -10 -16 -19 -8 -30 0 -20 15
8 14 22 14 30 1z m-287 -11 c-2 -6 -8 -10 -13 -10 -5 0 -11 4 -13 10 -2 6 4
11 13 11 9 0 15 -5 13 -11z m110 -71 c-6 -18 -28 -21 -28 -4 0 9 7 16 16 16 9
0 14 -5 12 -12z m872 -78 c13 -9 13 -10 0 -10 -8 0 -22 5 -30 10 -13 9 -13 10
0 10 8 0 22 -5 30 -10z m1 -20 c5 0 9 -9 9 -21 0 -31 -44 -22 -48 10 -3 19 0
22 13 17 9 -3 21 -6 26 -6z m-673 -72 c-7 -19 -38 -22 -38 -4 0 10 9 16 21 16
12 0 19 -5 17 -12z"/>
<path d="M2301 1275 c-19 -7 -52 -33 -75 -59 -34 -38 -54 -51 -121 -74 -44
-15 -104 -42 -133 -59 -29 -18 -56 -33 -61 -33 -14 0 -23 -32 -12 -43 12 -12
41 8 41 27 0 18 98 71 187 100 70 23 87 33 119 72 20 25 48 50 62 55 32 12 80
-3 100 -32 19 -27 67 -23 67 6 0 16 -9 21 -45 26 -25 3 -56 10 -70 16 -17 6
-36 6 -59 -2z m159 -39 c0 -11 -19 -15 -25 -6 -3 5 1 10 9 10 9 0 16 -2 16 -4z"/>
<path d="M376 1054 c-22 -21 -4 -45 33 -42 19 1 66 -28 178 -110 l152 -111
117 39 c105 36 121 39 151 28 28 -10 43 -9 100 9 67 22 194 33 223 20 8 -4 22
-3 30 3 13 8 12 11 -5 24 -11 8 -24 11 -30 7 -5 -5 -46 -11 -90 -14 -44 -3
-105 -15 -135 -25 -50 -17 -60 -18 -91 -6 -32 13 -41 12 -150 -25 l-115 -38
-146 106 c-92 66 -148 114 -150 126 -4 26 -50 32 -72 9z m44 -14 c0 -5 -7 -10
-15 -10 -8 0 -15 5 -15 10 0 6 7 10 15 10 8 0 15 -4 15 -10z"/>
<path d="M1391 869 c-16 -16 -47 -25 -109 -33 -48 -7 -145 -32 -217 -56 -114
-37 -135 -48 -171 -85 -40 -41 -56 -48 -465 -191 -233 -81 -426 -149 -428
-150 -1 -2 -1 -7 0 -12 2 -5 198 59 435 143 413 146 433 154 468 192 31 35 53
46 168 86 129 44 252 70 313 65 32 -2 55 7 55 22 0 5 -7 7 -15 4 -10 -4 -15 0
-15 11 0 10 5 13 12 9 7 -4 8 -3 4 4 -9 15 -8 16 -35 -9z"/>
<path d="M2603 833 c-10 -28 -25 -33 -75 -27 -40 6 -64 -1 -192 -51 -80 -32
-153 -55 -161 -51 -9 3 -18 -1 -21 -9 -4 -8 -10 -12 -16 -9 -5 3 -1 15 9 26
18 21 18 21 -5 7 -25 -16 -25 -37 0 -53 14 -8 24 -7 40 3 13 8 88 40 168 71
102 39 153 54 170 50 14 -4 54 -6 89 -5 71 1 97 19 72 49 -18 22 -70 21 -78
-1z m57 -13 c0 -5 -7 -10 -15 -10 -8 0 -15 5 -15 10 0 6 7 10 15 10 8 0 15 -4
15 -10z"/>
<path d="M1695 720 c27 -12 43 -12 25 0 -8 5 -22 9 -30 9 -10 0 -8 -3 5 -9z"/>
<path d="M2460 515 c-13 -34 -5 -46 28 -44 45 3 501 -150 512 -171 12 -23 43
-34 71 -25 30 10 22 55 -13 75 -23 12 -31 13 -48 2 -18 -11 -52 -2 -253 63
-163 53 -241 83 -260 101 l-27 25 -10 -26z m595 -196 c10 -15 -1 -23 -20 -15
-9 3 -13 10 -10 16 8 13 22 13 30 -1z"/>
<path d="M1943 467 c-13 -5 -23 -16 -23 -22 0 -7 10 -15 23 -19 16 -4 53 -59
137 -202 123 -210 137 -225 212 -223 33 1 33 1 -12 17 -25 9 -51 20 -57 25
-18 12 -243 390 -243 409 0 23 -11 27 -37 15z"/>
<path d="M2020 451 c0 -5 6 -16 13 -23 7 -7 24 -32 37 -56 15 -26 42 -54 71
-72 37 -22 60 -50 109 -129 59 -94 65 -100 102 -106 22 -4 49 -18 62 -32 31
-33 89 -30 94 5 7 47 -45 77 -86 51 -13 -8 -31 -9 -58 -3 -35 9 -44 19 -98
105 -46 73 -69 101 -105 122 -54 33 -99 93 -82 110 22 22 12 37 -24 37 -19 0
-35 -4 -35 -9z m458 -398 c2 -8 -5 -13 -17 -13 -12 0 -21 6 -21 16 0 18 31 15
38 -3z"/>
<path d="M2156 432 c-3 -6 4 -30 17 -54 19 -37 30 -46 79 -63 49 -18 62 -28
89 -70 38 -60 40 -61 98 -70 25 -4 53 -11 62 -16 19 -9 99 -130 99 -147 0 -7
5 -12 10 -12 22 0 8 44 -36 110 -45 67 -48 69 -103 80 -31 6 -61 13 -67 15 -6
2 -27 27 -47 57 -31 47 -42 56 -91 71 -58 18 -89 50 -61 61 19 7 20 36 1 36
-8 0 -21 3 -29 6 -8 3 -18 1 -21 -4z"/>
<path d="M1514 128 c-3 -11 -1 -25 5 -31 6 -6 11 -18 11 -27 1 -18 44 -70 60
-70 16 0 12 9 -15 42 -24 28 -24 32 -10 48 22 24 19 34 -15 47 -26 10 -30 9
-36 -9z"/>
<path d="M1666 129 c-4 -11 -3 -57 3 -91 3 -20 37 -38 69 -37 l37 0 -37 15
c-45 19 -57 44 -29 63 26 17 27 41 3 41 -10 0 -23 5 -30 12 -9 9 -12 8 -16 -3z"/>
</g>
</svg>
