<?xml version="1.0" standalone="no"?>
<!DOCTYPE svg PUBLIC "-//W3C//DTD SVG 20010904//EN"
 "http://www.w3.org/TR/2001/REC-SVG-20010904/DTD/svg10.dtd">
<svg version="1.0" xmlns="http://www.w3.org/2000/svg"
 width="342.000000pt" height="147.000000pt" viewBox="0 0 342.000000 147.000000"
 preserveAspectRatio="xMidYMid meet">

<g transform="translate(0.000000,147.000000) scale(0.100000,-0.100000)"
fill="#000000" stroke="none">
<path d="M1566 1404 c-12 -31 -6 -131 8 -143 9 -8 85 -11 252 -9 l239 3 0 80
0 80 -246 3 c-218 2 -247 1 -253 -14z m114 -50 c0 -15 3 -14 27 1 19 13 28 14
31 6 2 -6 8 -9 13 -5 5 3 9 0 9 -7 0 -8 4 -8 15 1 12 10 15 9 15 -6 0 -15 2
-16 9 -5 12 18 41 23 58 9 8 -6 13 -6 13 -1 0 5 7 10 15 10 10 0 14 -6 10 -14
-3 -8 -5 -21 -5 -29 0 -9 -12 -14 -36 -14 -31 0 -36 3 -31 20 3 11 1 18 -4 14
-5 -3 -9 -12 -9 -20 0 -9 -11 -14 -30 -14 -24 0 -30 4 -31 23 l-2 22 -4 -23
c-4 -18 -10 -22 -36 -20 -18 1 -35 7 -39 13 -5 6 -11 5 -17 -5 -16 -24 -22 -6
-10 28 11 33 39 44 39 16z m265 -4 c5 -8 11 -7 21 1 17 14 27 7 31 -22 4 -24
-25 -38 -38 -18 -6 10 -9 10 -9 2 0 -19 -37 -16 -44 3 -11 28 24 58 39 34z
m110 -80 c-4 -6 -92 -9 -238 -8 l-232 2 235 6 c129 3 236 7 238 8 2 1 0 -2 -3
-8z"/>
<path d="M1077 1384 c-4 -4 -7 -40 -7 -80 0 -89 -7 -86 175 -82 l130 3 0 80 0
80 -146 3 c-80 1 -148 -1 -152 -4z m10 -106 c-2 -18 -4 -6 -4 27 0 33 2 48 4
33 2 -15 2 -42 0 -60z m110 58 c-5 -12 1 -13 29 -9 30 5 34 3 35 -18 2 -23 2
-23 6 -2 3 17 11 21 31 20 21 -2 27 -8 27 -27 0 -22 -5 -25 -38 -28 -32 -3
-39 0 -44 17 -7 27 -23 27 -23 1 0 -13 -7 -20 -20 -20 -15 0 -20 7 -21 28 l-1
27 -11 -27 c-15 -38 -31 -35 -44 7 -12 39 2 49 17 13 6 -17 9 -18 9 -6 1 9 9
22 19 27 24 15 35 13 29 -3z m95 -103 c-40 -2 -103 -2 -140 0 -37 2 -4 3 73 3
77 0 107 -2 67 -3z"/>
<path d="M2164 1347 c-3 -8 -4 -45 -2 -83 l3 -69 205 0 205 0 3 83 3 82 -206
0 c-163 0 -207 -3 -211 -13z m204 -140 l187 -3 -190 1 -190 0 -1 60 0 60 3
-57 4 -58 187 -3z m-61 100 c-3 -8 -1 -20 4 -28 7 -11 9 -10 9 5 0 13 5 17 20
13 11 -3 20 -1 20 4 0 5 5 9 10 9 6 0 10 -16 10 -35 l0 -35 -45 2 c-25 0 -45
6 -45 12 0 6 -5 5 -12 -2 -7 -7 -20 -12 -30 -12 -14 0 -18 8 -18 35 0 27 4 35
18 35 10 0 23 -5 30 -12 9 -9 12 -8 12 5 0 9 5 17 11 17 6 0 9 -6 6 -13z m121
-19 c9 -9 12 -9 12 0 0 8 13 11 37 9 33 -2 38 -6 38 -27 0 -16 -6 -26 -18 -28
-13 -3 -17 1 -15 14 2 9 -3 19 -9 21 -8 3 -13 -4 -13 -15 0 -14 -7 -19 -31
-20 -31 -1 -46 16 -35 43 7 18 18 19 34 3z"/>
<path d="M2250 1274 c0 -8 5 -12 10 -9 6 4 8 11 5 16 -9 14 -15 11 -15 -7z"/>
<path d="M441 1216 c-7 -9 -11 -38 -9 -73 l3 -58 235 0 235 0 3 58 c2 35 -2
64 -9 73 -9 11 -54 14 -229 14 -175 0 -220 -3 -229 -14z m6 -83 c-2 -16 -4 -5
-4 22 0 28 2 40 4 28 2 -13 2 -35 0 -50z m449 -29 c-4 -11 -46 -14 -228 -12
-123 1 -181 4 -130 5 84 3 92 6 92 23 0 17 -3 18 -19 9 -24 -16 -53 -4 -49 18
3 15 16 18 76 20 71 2 72 2 72 -22 0 -34 -40 -36 -41 -2 0 21 -1 21 -9 2 -19
-44 -16 -45 110 -45 l120 0 2 53 c1 51 2 52 5 8 3 -24 2 -50 -1 -57z m-366 76
c0 -5 6 -10 14 -10 9 0 12 -8 8 -25 -2 -14 -8 -25 -13 -25 -5 0 -9 11 -9 25 0
14 -4 25 -10 25 -5 0 -10 -11 -10 -25 0 -14 -4 -25 -10 -25 -5 0 -10 9 -10 19
0 11 -3 26 -6 35 -5 12 0 16 20 16 14 0 26 -4 26 -10z m232 -35 c4 -21 1 -25
-18 -25 -19 0 -24 5 -24 25 0 18 5 25 19 25 12 0 20 -9 23 -25z m98 0 c0 -23
-3 -25 -42 -22 -36 2 -44 6 -46 25 -3 20 1 22 42 22 42 0 46 -2 46 -25z"/>
<path d="M580 1150 c0 -5 5 -10 11 -10 5 0 7 5 4 10 -3 6 -8 10 -11 10 -2 0
-4 -4 -4 -10z"/>
<path d="M1280 1116 c0 -10 -4 -15 -8 -12 -5 3 -14 -3 -22 -14 -8 -11 -20 -16
-29 -12 -13 5 -14 3 -4 -10 7 -8 10 -18 6 -22 -13 -12 -11 -97 2 -92 6 2 19
-6 29 -19 10 -13 25 -22 34 -20 9 1 23 -2 30 -8 8 -6 12 -6 12 1 0 6 9 9 20 7
11 -2 20 0 20 6 0 5 6 9 14 9 8 0 18 9 21 20 3 11 10 20 15 20 5 0 7 18 5 40
-3 29 0 42 13 50 15 10 15 11 0 6 -22 -6 -62 29 -52 46 6 10 4 10 -9 -1 -10
-8 -17 -9 -17 -3 0 6 -12 10 -27 8 -16 -1 -34 2 -40 7 -9 7 -13 4 -13 -7z m61
-43 c12 -15 12 -16 -1 -8 -13 8 -13 6 -2 -8 15 -18 7 -41 -11 -34 -7 2 -20 0
-30 -5 -21 -11 -47 6 -47 30 0 37 67 55 91 25z"/>
<path d="M1795 1085 c9 -22 19 -45 22 -51 5 -12 -55 -54 -78 -54 -7 0 -23 9
-35 21 -19 18 -21 25 -12 50 5 16 14 26 19 23 5 -3 9 2 9 12 0 14 -2 14 -16 3
-9 -7 -20 -23 -25 -36 -8 -23 -39 -33 -39 -13 0 6 -4 10 -10 10 -21 0 -9 -20
15 -26 14 -3 25 -13 25 -23 0 -30 22 -41 81 -41 48 0 63 4 85 25 19 18 33 23
50 19 19 -5 24 -2 23 12 0 11 -3 14 -5 8 -4 -11 -24 -10 -62 2 -11 3 -10 7 2
19 8 8 19 15 25 15 6 0 11 5 11 11 0 5 -4 8 -9 5 -5 -4 -12 0 -14 6 -3 8 -6 6
-6 -4 -1 -24 -28 -23 -36 1 -3 11 -13 25 -21 32 -14 11 -14 8 1 -26z"/>
<path d="M2156 1087 c-25 -21 -28 -28 -22 -59 4 -24 3 -39 -6 -44 -8 -5 -6 -9
8 -14 17 -6 16 -9 -11 -26 -16 -10 -30 -27 -30 -36 0 -26 11 -30 12 -5 1 12 7
23 14 26 6 2 20 12 30 22 12 12 19 14 19 6 0 -8 13 -12 37 -11 21 1 41 -3 45
-9 5 -9 11 -8 20 1 10 10 10 18 -4 43 -15 26 -16 31 -3 35 19 8 20 51 0 51 -8
0 -12 -4 -9 -9 3 -4 -7 -9 -23 -9 -26 -2 -25 -2 7 -9 35 -7 35 -7 5 -9 -61 -3
-74 -41 -14 -41 42 0 36 -17 -8 -22 -27 -3 -43 1 -58 14 -14 14 -15 18 -5 16
12 -2 14 6 12 40 -3 31 0 42 10 42 8 0 15 7 15 15 0 20 -7 19 -41 -8z"/>
<path d="M1644 1082 c23 -26 26 -27 26 -5 0 9 -3 13 -7 10 -3 -4 -13 -1 -22 5
-10 8 -9 4 3 -10z"/>
<path d="M2231 1084 c0 -11 3 -14 6 -6 3 7 2 16 -1 19 -3 4 -6 -2 -5 -13z"/>
<path d="M1760 1079 c0 -5 5 -7 10 -4 6 3 10 8 10 11 0 2 -4 4 -10 4 -5 0 -10
-5 -10 -11z"/>
<path d="M1697 1036 c-11 -29 51 -52 80 -31 17 13 17 14 -2 29 -25 19 -71 20
-78 2z"/>
<path d="M924 983 c-4 -15 -14 -33 -23 -39 -8 -7 -20 -27 -26 -45 -8 -24 -19
-35 -35 -37 -18 -3 -21 0 -16 14 6 17 6 17 -14 -1 -15 -14 -17 -21 -9 -32 14
-16 23 -17 13 0 -6 8 -3 8 9 -1 17 -15 61 -7 52 9 -4 5 1 9 9 9 8 0 17 -9 21
-20 5 -15 13 -19 35 -16 16 2 32 -2 35 -8 3 -6 3 -1 1 10 -3 17 1 21 18 17 12
-3 17 -1 11 4 -5 4 -11 19 -13 33 -4 27 -31 75 -38 67 -3 -2 0 -16 6 -31 7
-19 6 -32 -3 -46 -14 -24 -43 -26 -51 -4 -3 8 -10 12 -16 9 -13 -8 -13 6 0 39
5 14 16 26 24 26 17 0 33 19 38 44 5 31 -21 30 -28 -1z"/>
<path d="M2584 997 c-3 -8 -4 -45 -2 -83 l3 -69 260 0 260 0 0 80 0 80 -258 3
c-210 2 -258 0 -263 -11z m266 -135 c137 2 246 0 241 -5 -4 -4 -117 -6 -252
-5 l-244 3 -1 60 0 60 3 -58 4 -58 249 3z m-176 91 c12 -12 90 -11 99 1 4 7
10 8 15 1 8 -12 29 -12 56 0 11 5 21 3 26 -5 4 -7 12 -10 17 -7 5 3 15 2 23
-3 9 -5 19 -5 27 2 9 7 17 7 28 -2 8 -7 15 -8 15 -3 0 5 17 9 37 8 33 0 38 -3
38 -25 0 -18 -5 -25 -20 -25 -14 0 -19 6 -17 18 2 9 -2 17 -8 17 -5 0 -10 -9
-10 -20 0 -11 -4 -20 -10 -20 -5 0 -10 6 -10 13 0 8 -3 9 -8 1 -5 -7 -64 -11
-174 -12 l-168 0 0 34 c0 26 4 34 18 34 10 0 22 -3 26 -7z"/>
<path d="M2750 920 c0 -5 5 -10 11 -10 5 0 7 5 4 10 -3 6 -8 10 -11 10 -2 0
-4 -4 -4 -10z"/>
<path d="M2940 920 c0 -5 5 -10 10 -10 6 0 10 5 10 10 0 6 -4 10 -10 10 -5 0
-10 -4 -10 -10z"/>
<path d="M2135 900 c4 -6 11 -8 16 -5 14 9 11 15 -7 15 -8 0 -12 -5 -9 -10z"/>
<path d="M1017 853 c3 -21 13 -51 22 -68 l16 -30 3 31 c3 35 -21 104 -37 104
-6 0 -7 -16 -4 -37z"/>
<path d="M1185 757 c-11 -44 -1 -140 15 -144 12 -4 12 -2 2 5 -9 6 -12 30 -10
78 l3 69 453 3 452 2 0 -74 c0 -41 -5 -77 -10 -79 -6 -3 -5 -4 2 -3 9 2 13 26
13 82 l0 79 -457 3 -458 2 -5 -23z"/>
<path d="M1240 705 c0 -54 19 -61 21 -7 l2 37 10 -37 c6 -21 15 -38 20 -38 5
0 6 10 2 23 -3 12 -9 32 -12 45 -3 13 -13 22 -24 22 -16 0 -19 -8 -19 -45z"/>
<path d="M1306 734 c-3 -9 -6 -23 -5 -32 1 -10 4 -7 9 8 7 22 8 21 9 -12 1
-54 21 -47 21 7 0 32 -4 45 -14 45 -8 0 -17 -7 -20 -16z"/>
<path d="M1372 712 c-7 -22 -12 -41 -12 -43 0 -2 20 -4 44 -5 l44 -1 -12 41
c-17 58 -48 62 -64 8z m34 -19 c-11 -11 -17 4 -9 23 7 18 8 18 11 1 2 -10 1
-21 -2 -24z"/>
<path d="M1470 705 c0 -43 1 -45 30 -45 17 0 30 5 30 10 0 6 -9 10 -20 10 -16
0 -20 7 -20 35 0 19 -4 35 -10 35 -5 0 -10 -20 -10 -45z"/>
<path d="M1540 743 c0 -5 5 -25 11 -46 11 -41 32 -45 37 -9 4 30 18 28 26 -3
6 -24 20 -33 29 -17 2 4 7 24 11 45 8 41 -9 52 -23 15 l-8 -23 -7 23 c-4 12
-11 22 -16 22 -5 0 -12 -10 -16 -22 l-7 -23 -8 23 c-8 20 -29 31 -29 15z"/>
<path d="M1691 728 c-25 -66 -25 -65 24 -64 36 1 44 4 39 16 -3 8 -8 27 -11
43 -7 34 -40 37 -52 5z m32 -18 c3 -11 1 -20 -4 -20 -5 0 -9 9 -9 20 0 11 2
20 4 20 2 0 6 -9 9 -20z"/>
<path d="M1780 705 c0 -48 13 -60 24 -22 l7 22 11 -22 c6 -13 17 -23 25 -23
15 0 17 16 3 25 -7 4 -7 13 0 24 12 24 -5 41 -42 41 -27 0 -28 -2 -28 -45z
m50 15 c0 -5 -4 -10 -9 -10 -6 0 -13 5 -16 10 -3 6 1 10 9 10 9 0 16 -4 16
-10z"/>
<path d="M1880 705 c0 -45 0 -45 35 -45 19 0 35 5 35 10 0 6 -11 10 -25 10
-14 0 -25 5 -25 10 0 6 11 10 25 10 34 0 32 18 -2 23 l-28 4 28 2 c40 2 33 21
-8 21 -35 0 -35 0 -35 -45z"/>
<path d="M1983 743 c-22 -8 -14 -33 12 -43 33 -13 32 -24 -1 -16 -19 5 -25 3
-22 -6 3 -7 18 -13 34 -13 39 0 46 31 10 45 -34 13 -33 22 2 14 24 -7 26 -6
13 9 -14 17 -26 20 -48 10z"/>
<path d="M766 679 c-9 -46 -7 -87 4 -94 6 -3 10 -17 10 -30 0 -97 124 -129
190 -49 8 9 -3 5 -24 -10 -45 -30 -96 -34 -119 -8 -19 21 -27 68 -10 65 6 -1
14 4 17 12 3 10 -1 15 -14 15 -25 0 -35 17 -20 35 10 12 9 15 -4 15 -9 0 -16
5 -16 10 0 6 6 10 14 10 12 0 12 4 0 30 -9 17 -17 30 -18 30 -2 0 -6 -14 -10
-31z"/>
<path d="M131 686 c-7 -9 -11 -40 -9 -83 l3 -68 220 0 220 0 0 80 0 80 -211 3
c-173 2 -213 0 -223 -12z m422 -3 c3 -5 -56 -7 -131 -5 -252 4 -278 8 -75 10
111 1 204 -1 206 -5z m-416 -95 c-2 -18 -4 -6 -4 27 0 33 2 48 4 33 2 -15 2
-42 0 -60z m94 49 c9 -7 19 -21 22 -32 4 -19 5 -19 6 1 1 16 8 21 31 22 21 0
30 -4 31 -16 1 -15 2 -15 6 1 3 13 15 17 49 17 28 0 44 -4 44 -12 0 -9 2 -10
8 -2 4 7 26 12 50 12 38 1 42 -2 42 -23 0 -21 -4 -24 -42 -23 -24 0 -46 5 -50
12 -6 8 -8 7 -8 -1 0 -20 -20 -15 -21 5 -1 16 -2 16 -6 0 -4 -15 -18 -17 -111
-15 -94 2 -107 4 -110 20 -4 20 14 47 32 47 6 0 18 -6 27 -13z"/>
<path d="M823 693 c-15 -5 -17 -23 -4 -23 5 0 11 7 15 15 3 8 4 15 3 14 -1 0
-8 -3 -14 -6z"/>
<path d="M2374 680 c-10 -11 -33 -32 -51 -47 -27 -24 -32 -36 -36 -85 -3 -51
-1 -58 15 -58 15 0 17 6 12 38 -3 24 -1 43 9 56 14 19 15 19 32 -7 9 -15 17
-42 17 -62 0 -19 1 -35 2 -35 1 0 20 9 42 19 44 22 56 19 52 -11 -2 -12 3 -23
11 -26 13 -4 13 23 -1 76 -4 19 47 56 66 49 10 -4 16 -18 16 -37 0 -18 5 -30
13 -30 18 0 9 70 -12 94 -9 10 -32 26 -52 36 -19 10 -41 26 -48 34 -18 22 -64
20 -87 -4z m76 -25 c0 -8 -7 -15 -15 -15 -8 0 -15 7 -15 15 0 8 7 15 15 15 8
0 15 -7 15 -15z"/>
<path d="M830 660 c-9 -6 -10 -10 -3 -10 6 0 15 5 18 10 8 12 4 12 -15 0z"/>
<path d="M941 607 c-13 -21 -12 -21 5 -5 10 10 16 20 13 22 -3 3 -11 -5 -18
-17z"/>
<path d="M2648 619 c-14 -8 -18 -24 -18 -78 0 -46 5 -72 14 -80 9 -8 95 -11
292 -9 l279 3 3 81 c3 78 2 82 -20 88 -40 10 -532 6 -550 -5z m-1 -111 c-2
-18 -4 -4 -4 32 0 36 2 50 4 33 2 -18 2 -48 0 -65z m73 60 c0 -9 3 -8 10 2 5
8 12 11 16 7 4 -3 1 -13 -5 -21 -7 -8 -8 -17 -3 -20 6 -3 13 1 16 9 4 12 17
15 48 13 25 -1 43 3 46 10 8 25 22 11 22 -23 0 -34 -13 -47 -23 -22 -3 6 -6 2
-6 -10 -1 -14 -7 -23 -17 -23 -8 0 -13 3 -11 8 3 4 1 16 -4 27 -6 16 -8 17 -8
3 -1 -13 -11 -16 -51 -15 -50 1 -50 1 -50 34 0 18 5 33 10 33 6 0 10 -6 10
-12z m430 -34 c0 -17 -6 -24 -20 -24 -12 0 -20 7 -21 18 -1 14 -2 14 -6 1 -2
-10 -16 -16 -36 -17 -17 0 -33 -6 -35 -11 -5 -14 -102 -14 -102 -1 0 6 -11 10
-25 10 -18 0 -25 5 -25 18 0 10 2 21 5 24 3 3 64 5 135 6 l130 0 0 -24z"/>
<path d="M835 610 c-3 -5 -1 -10 4 -10 6 0 11 5 11 10 0 6 -2 10 -4 10 -3 0
-8 -4 -11 -10z"/>
<path d="M920 565 c0 -8 5 -15 10 -15 20 0 10 -20 -17 -34 -16 -8 -23 -15 -18
-16 20 0 55 31 55 50 0 10 6 21 13 23 6 3 0 6 -15 6 -19 1 -28 -4 -28 -14z"/>
<path d="M2145 499 c-5 -15 -10 -17 -19 -9 -21 17 -79 19 -108 4 -24 -12 -28
-21 -28 -58 0 -46 23 -77 68 -91 34 -10 102 4 102 21 0 9 5 12 11 8 8 -5 10 5
5 32 -4 22 -7 47 -8 56 -1 9 -6 14 -11 11 -4 -2 -5 7 -1 21 7 31 -2 35 -11 5z
m-47 -79 c2 -54 -8 -68 -31 -42 -23 25 -26 67 -5 67 9 0 20 4 24 8 4 4 2 7 -4
7 -7 0 -12 4 -12 10 0 5 6 7 13 4 7 -2 14 -25 15 -54z m62 14 c0 -11 -28 -33
-34 -27 -10 10 -7 25 4 18 6 -3 10 -1 10 4 0 6 5 11 10 11 6 0 10 -3 10 -6z"/>
<path d="M2058 428 c5 -5 16 -8 23 -6 8 3 3 7 -10 11 -17 4 -21 3 -13 -5z"/>
<path d="M1285 503 c-30 -7 -38 -19 -26 -40 6 -10 11 -12 11 -5 0 6 8 12 19
12 21 0 37 -16 44 -45 5 -20 5 -20 6 0 0 11 -6 31 -15 43 -15 21 -14 22 16 22
27 0 30 -2 20 -19 -5 -11 -10 -31 -10 -45 0 -23 -4 -26 -34 -26 -19 0 -38 -5
-42 -12 -4 -7 -3 -8 4 -4 8 5 12 -1 12 -17 0 -60 55 -114 67 -67 3 11 10 20
15 20 6 0 8 13 4 31 -4 21 -1 35 9 46 20 19 19 77 -1 97 -15 15 -57 19 -99 9z
m55 -133 c0 -5 -8 -10 -17 -10 -15 0 -16 2 -3 10 19 12 20 12 20 0z m10 -64
c0 -11 -19 -15 -25 -6 -3 5 1 10 9 10 9 0 16 -2 16 -4z"/>
<path d="M1287 430 c-8 -11 -17 -17 -20 -13 -4 3 -7 1 -7 -5 0 -7 -6 -12 -14
-12 -26 0 -26 -29 0 -46 13 -9 27 -14 31 -10 3 3 1 6 -6 6 -7 0 -9 4 -6 10 4
6 -1 7 -11 3 -29 -11 -11 20 22 37 16 9 30 23 30 33 2 22 -2 21 -19 -3z"/>
<path d="M582 271 c-9 -5 -12 -29 -10 -82 l3 -74 259 -3 c201 -2 261 1 268 10
11 19 10 116 -2 139 -10 18 -24 19 -258 19 -136 0 -253 -4 -260 -9z m376 -8
c-64 -2 -172 -2 -240 0 -68 1 -15 3 117 3 132 0 187 -2 123 -3z m-283 -43 c3
-5 22 -10 41 -10 20 0 34 -5 35 -12 0 -10 2 -10 6 0 2 6 13 12 24 12 10 0 19
-6 19 -12 0 -9 4 -8 10 2 9 13 11 13 20 0 6 -10 10 -11 10 -2 0 7 13 12 30 12
25 0 30 -4 30 -24 0 -23 -3 -25 -55 -24 -30 1 -55 5 -55 10 0 4 -4 8 -10 8 -5
0 -10 -9 -10 -20 0 -11 -7 -20 -16 -20 -8 0 -13 3 -11 8 3 4 1 16 -4 27 -6 17
-8 17 -8 3 -1 -10 -7 -18 -15 -18 -8 0 -17 -6 -20 -12 -5 -10 -7 -10 -12 0 -3
6 -17 12 -30 12 -13 0 -24 4 -24 10 0 5 8 7 18 4 15 -5 15 -4 -2 10 -16 13
-17 18 -6 31 14 17 26 19 35 5z m355 -36 c0 -21 -5 -24 -40 -24 -27 0 -42 6
-49 18 -10 16 -10 16 -11 0 0 -10 -4 -18 -10 -18 -5 0 -10 11 -10 24 0 22 3
24 60 24 57 0 60 -2 60 -24z"/>
<path d="M650 206 c0 -2 7 -7 16 -10 8 -3 12 -2 9 4 -6 10 -25 14 -25 6z"/>
<path d="M2001 246 c-7 -9 -11 -41 -9 -83 l3 -68 210 0 210 0 3 68 c2 42 -2
74 -9 83 -9 11 -51 14 -204 14 -153 0 -195 -3 -204 -14z m302 -3 c-51 -2 -136
-2 -190 0 -54 1 -12 3 92 3 105 0 149 -2 98 -3z m-296 -95 c-2 -18 -4 -6 -4
27 0 33 2 48 4 33 2 -15 2 -42 0 -60z m139 51 c4 -8 9 -7 15 2 6 10 11 11 17
3 4 -6 15 -10 25 -8 13 2 17 -2 13 -13 -3 -8 -6 -21 -6 -29 0 -8 -10 -14 -25
-14 -19 0 -25 5 -26 23 l0 22 -10 -23 c-6 -17 -15 -22 -31 -20 -38 5 -37 68 1
68 11 0 23 -5 27 -11z m119 -9 c5 -8 11 -7 20 0 19 16 33 6 31 -22 -1 -20 -7
-23 -42 -25 -31 -2 -44 2 -48 13 -11 28 24 57 39 34z"/>
<path d="M2110 175 c0 -8 5 -15 10 -15 6 0 10 7 10 15 0 8 -4 15 -10 15 -5 0
-10 -7 -10 -15z"/>
<path d="M2175 170 c3 -5 8 -10 11 -10 2 0 4 5 4 10 0 6 -5 10 -11 10 -5 0 -7
-4 -4 -10z"/>
<path d="M2245 170 c-3 -5 -1 -10 4 -10 6 0 11 5 11 10 0 6 -2 10 -4 10 -3 0
-8 -4 -11 -10z"/>
</g>
</svg>
