<?xml version="1.0" standalone="no"?>
<!DOCTYPE svg PUBLIC "-//W3C//DTD SVG 20010904//EN"
 "http://www.w3.org/TR/2001/REC-SVG-20010904/DTD/svg10.dtd">
<svg version="1.0" xmlns="http://www.w3.org/2000/svg"
 width="389.000000pt" height="129.000000pt" viewBox="0 0 389.000000 129.000000"
 preserveAspectRatio="xMidYMid meet">

<g transform="translate(0.000000,129.000000) scale(0.100000,-0.100000)"
fill="#000000" stroke="none">
<path d="M0 946 l0 -345 23 -4 22 -4 -22 -2 c-19 -1 -23 -7 -23 -31 0 -32 2
-33 38 -23 18 4 22 11 18 26 -3 14 -2 17 6 9 17 -17 1 -42 -32 -48 l-30 -6 0
-259 0 -259 1001 0 c664 0 998 3 994 10 -3 6 -1 10 4 10 6 0 11 -4 11 -10 0
-7 320 -10 940 -10 l940 0 0 645 0 645 -1945 0 -1945 0 0 -344z m275 -346
c-28 -12 -37 -12 -30 0 3 6 16 10 28 9 21 0 21 -1 2 -9z m155 -59 c0 -5 -11
-11 -25 -13 -14 -3 -25 -2 -25 3 0 4 10 10 23 12 12 2 23 5 25 6 1 0 2 -3 2
-8z m60 5 c0 -9 -30 -14 -35 -6 -4 6 3 10 14 10 12 0 21 -2 21 -4z m-246 -44
c2 -4 -10 -8 -27 -9 -30 -1 -30 -1 -7 7 14 4 26 8 27 9 1 1 4 -3 7 -7z m111
-1 c-12 -10 -65 -24 -65 -16 0 2 15 9 33 14 43 12 42 12 32 2z m95 -15 c0 -2
-9 -6 -20 -9 -11 -3 -18 -1 -14 4 5 9 34 13 34 5z m-410 -41 c-7 -8 -17 -12
-23 -8 -6 4 -3 9 9 14 27 11 28 11 14 -6z m350 -3 c-14 -2 -30 -8 -36 -13 -6
-5 -14 -6 -18 -2 -9 10 56 32 69 24 6 -3 -1 -8 -15 -9z m-91 -26 c-2 -2 -17
-6 -34 -9 l-30 -6 30 13 c26 12 47 13 34 2z m-64 -26 c3 -6 -1 -7 -9 -4 -18 7
-21 14 -7 14 6 0 13 -4 16 -10z m190 0 c-27 -12 -43 -12 -25 0 8 5 22 9 30 9
10 0 8 -3 -5 -9z m2200 -88 c-3 -3 -11 0 -18 7 -9 10 -8 11 6 5 10 -3 15 -9
12 -12z m-709 -47 c9 -8 11 -15 6 -15 -5 0 -15 7 -22 15 -7 8 -9 15 -6 15 4 0
14 -7 22 -15z m489 -5 c3 -5 1 -10 -4 -10 -6 0 -11 5 -11 10 0 6 2 10 4 10 3
0 8 -4 11 -10z m68 -35 c-3 -9 -8 -14 -10 -11 -3 3 -2 9 2 15 9 16 15 13 8 -4z
m-43 -87 c0 -6 -7 -5 -15 2 -8 7 -15 17 -15 22 0 6 7 5 15 -2 8 -7 15 -17 15
-22z m40 -78 c11 -11 17 -20 13 -20 -11 1 -43 26 -43 34 0 11 9 7 30 -14z
m-365 -9 c3 -5 1 -12 -5 -16 -5 -3 -10 1 -10 9 0 18 6 21 15 7z"/>
</g>
</svg>
