<?xml version="1.0" standalone="no"?>
<!DOCTYPE svg PUBLIC "-//W3C//DTD SVG 20010904//EN"
 "http://www.w3.org/TR/2001/REC-SVG-20010904/DTD/svg10.dtd">
<svg version="1.0" xmlns="http://www.w3.org/2000/svg"
 width="216.000000pt" height="184.000000pt" viewBox="0 0 216.000000 184.000000"
 preserveAspectRatio="xMidYMid meet">

<g transform="translate(0.000000,184.000000) scale(0.100000,-0.100000)"
fill="#000000" stroke="none">
<path d="M545 1815 c-38 -13 -83 -24 -98 -25 -36 0 -121 -44 -141 -72 -9 -12
-30 -27 -48 -32 -18 -7 -45 -28 -63 -52 -88 -120 -132 -180 -146 -203 -8 -14
-23 -88 -34 -163 -17 -130 -18 -141 -1 -238 9 -56 25 -118 35 -138 11 -21 26
-54 35 -74 9 -21 22 -38 30 -38 8 0 25 -15 37 -32 29 -42 39 -49 66 -46 13 2
31 -8 47 -25 27 -30 74 -35 150 -17 26 6 57 5 88 -2 60 -14 216 4 267 31 37
19 65 52 76 89 6 22 4 21 -44 -12 -56 -38 -118 -53 -173 -41 -51 11 -70 24
-63 43 4 9 8 34 8 56 2 31 -3 43 -26 62 -30 25 -30 45 0 91 17 26 90 45 156
39 76 -7 25 35 -59 47 -64 10 -203 -44 -259 -102 -38 -39 -59 -39 -82 -1 -9
17 -25 33 -35 36 -20 6 -23 36 -8 98 6 29 5 47 -6 67 -17 33 -18 108 -3 163
12 44 34 66 96 97 27 13 51 35 64 59 19 34 66 66 90 62 4 -1 10 10 13 23 6 24
26 35 26 15 0 -5 -4 -10 -10 -10 -5 0 -10 -7 -10 -15 0 -17 33 -18 125 -4 175
28 261 16 337 -47 23 -20 55 -42 72 -51 41 -20 77 -54 70 -65 -4 -7 419 -6
445 1 10 3 -57 44 -170 105 -82 44 -130 76 -137 91 -14 31 -68 70 -117 85 -22
7 -80 32 -130 55 -49 24 -128 53 -175 65 -47 12 -107 28 -134 36 -64 19 -79
18 -161 -11z m187 -126 c-9 -10 -22 -19 -28 -19 -7 0 -14 -6 -17 -12 -2 -7 -4
-1 -4 15 0 15 4 30 8 33 5 3 7 9 4 14 -3 5 8 5 24 -1 28 -10 29 -11 13 -30z
m-72 -28 c0 -13 -30 -22 -43 -14 -7 4 -2 10 13 14 14 4 26 7 28 8 1 1 2 -3 2
-8z m-20 -32 c0 7 5 9 10 6 7 -4 2 -14 -11 -26 -24 -21 -34 -24 -24 -9 3 6 -1
10 -9 10 -8 0 -14 -6 -12 -12 1 -7 1 -10 -1 -6 -2 4 -11 4 -19 1 -10 -4 -12
-9 -4 -18 8 -9 6 -14 -6 -19 -9 -4 -19 -4 -22 -1 -3 3 -1 5 5 5 6 0 9 9 6 20
-3 12 0 20 6 20 7 0 21 9 33 20 16 15 25 17 35 9 9 -9 13 -8 13 0z m-396 -801
c-10 -10 -22 -18 -28 -18 -6 0 -5 4 3 9 10 7 11 13 2 30 -11 20 -10 20 14 9
24 -11 24 -12 9 -30z m-79 -57 c-6 -5 -25 10 -25 20 0 5 6 4 14 -3 8 -7 12
-15 11 -17z"/>
<path d="M690 1690 c0 -5 4 -10 9 -10 6 0 13 5 16 10 3 6 -1 10 -9 10 -9 0
-16 -4 -16 -10z"/>
<path d="M933 1383 c31 -2 83 -2 115 0 31 2 5 3 -58 3 -63 0 -89 -1 -57 -3z"/>
<path d="M1762 1284 c-1 -45 -5 -116 -9 -159 -4 -57 -3 -76 5 -71 18 11 50
-11 68 -47 9 -18 37 -51 61 -74 l45 -42 -43 -51 c-24 -28 -64 -66 -89 -84 -60
-43 -165 -92 -215 -101 -22 -3 -60 -17 -84 -31 -24 -13 -50 -24 -58 -24 -7 0
-25 -7 -39 -16 -21 -15 -80 -18 -430 -25 l-405 -7 -19 -24 c-19 -23 -22 -29
-24 -58 -1 -8 -7 -14 -14 -13 -8 2 -9 -3 -1 -21 13 -29 -14 -91 -36 -82 -18 7
-37 -17 -29 -38 3 -9 -1 -27 -10 -41 -9 -13 -16 -27 -16 -30 0 -4 22 -5 49 -4
48 3 81 -11 81 -34 0 -8 -3 -8 -11 0 -14 14 -55 -2 -64 -25 -7 -19 -2 -24 18
-16 9 3 13 12 10 21 -4 11 -2 14 5 9 7 -4 12 -2 12 4 0 6 5 8 10 5 6 -4 8 -15
5 -26 -5 -14 -3 -17 9 -13 9 3 16 16 16 28 0 24 -42 71 -53 59 -4 -3 -7 -1 -7
6 0 7 7 20 16 29 15 15 18 14 31 -3 13 -19 14 -19 11 0 -2 11 0 20 4 20 4 0
15 10 24 23 9 13 22 21 30 18 12 -5 12 -2 3 15 -8 16 -8 20 0 14 7 -4 18 -1
26 5 12 10 15 9 15 -3 0 -8 -6 -18 -12 -20 -10 -4 -9 -6 1 -6 11 -1 10 -5 -3
-20 -10 -11 -25 -17 -34 -14 -10 4 -13 2 -8 -6 11 -17 -34 -53 -57 -47 -15 4
-16 2 -6 -10 6 -8 29 -14 52 -14 24 0 48 -7 60 -18 19 -15 20 -16 14 0 -4 12
-1 16 13 15 18 -1 18 -3 2 -29 -16 -27 -18 -28 -30 -11 -12 16 -13 15 -6 -11
5 -20 3 -32 -8 -40 -15 -11 -20 -56 -6 -56 4 0 8 7 8 15 0 9 9 15 24 15 20 0
22 -4 17 -28 -5 -27 -5 -27 -9 -3 l-4 25 -18 -25 c-15 -19 -21 -22 -31 -11
-15 14 -33 16 -25 3 3 -5 -43 -10 -105 -10 -74 -1 -108 2 -104 9 3 5 13 10 21
10 8 0 14 10 14 25 0 24 -15 31 -57 26 -7 -1 -13 2 -13 8 0 5 -3 18 -6 28 -6
16 -5 16 10 -2 12 -13 16 -15 13 -5 -3 11 2 16 16 18 17 1 19 -1 7 -8 -11 -7
-11 -10 -2 -10 7 0 10 -5 6 -12 -4 -7 -3 -8 4 -4 18 11 14 36 -6 43 -15 6 -14
8 6 13 31 7 28 26 -3 22 -14 -2 -25 2 -25 8 0 6 4 9 9 6 5 -4 7 4 4 16 -4 23
-4 23 10 -1 12 -21 15 -21 21 -6 3 10 4 20 1 23 -3 3 -5 -1 -5 -9 0 -12 -2
-12 -9 0 -7 10 0 28 20 58 27 38 39 47 60 45 3 -1 11 10 17 23 9 19 8 26 -6
37 -15 11 -15 11 -5 -3 13 -17 1 -39 -22 -39 -11 0 -43 -41 -107 -136 -23 -33
-38 -44 -74 -53 -122 -31 -168 -75 -162 -154 l3 -42 677 -3 677 -2 49 92 c131
245 161 308 156 325 -4 12 -3 14 3 6 6 -9 17 4 35 41 28 57 47 69 157 96 43
11 65 29 124 100 24 29 26 35 13 42 -23 13 -19 30 13 55 20 16 28 18 28 8 0
-8 -4 -12 -9 -9 -5 4 -12 -3 -15 -15 -3 -12 -10 -18 -17 -14 -6 3 -7 2 -3 -2
25 -28 61 8 59 58 -1 20 14 23 22 5 3 -8 5 -8 3 2 -1 8 10 35 25 60 60 102 51
163 -38 264 -70 78 -111 105 -236 152 -74 27 -77 30 -81 64 -2 19 -4 -1 -5
-46z m232 -579 c3 -10 0 -12 -12 -9 -14 5 -13 2 3 -12 17 -14 17 -16 3 -11
-13 5 -18 1 -19 -11 0 -14 -2 -14 -9 3 -5 11 -9 27 -9 35 -1 20 36 23 43 5z
m-48 -54 c-4 -5 -13 -8 -20 -5 -8 3 -17 1 -21 -5 -3 -7 0 -8 9 -5 9 3 16 1 16
-5 0 -6 -11 -11 -25 -11 -36 0 -31 23 10 46 21 13 42 3 31 -15z m-620 -126
c-9 -7 -16 -17 -16 -24 0 -6 -5 -11 -11 -11 -7 0 -9 9 -5 23 3 12 6 25 6 29 0
11 35 15 39 4 2 -5 -4 -15 -13 -21z m-505 8 c12 -16 12 -17 -2 -6 -9 7 -20 9
-24 5 -5 -4 -5 -1 -1 6 9 16 11 15 27 -5z m69 1 c0 -2 -7 -4 -15 -4 -8 0 -15
4 -15 10 0 5 7 7 15 4 8 -4 15 -8 15 -10z m48 4 c-6 -18 -28 -21 -28 -4 0 9 7
16 16 16 9 0 14 -5 12 -12z m72 2 c0 -5 -13 -10 -30 -10 -16 0 -30 5 -30 10 0
6 14 10 30 10 17 0 30 -4 30 -10z m40 0 c0 -5 -7 -10 -15 -10 -8 0 -15 5 -15
10 0 6 7 10 15 10 8 0 15 -4 15 -10z m98 -4 c-13 -13 -38 -17 -38 -6 0 11 8
16 29 17 16 1 18 -1 9 -11z m96 2 c-3 -4 -18 -8 -35 -8 -16 0 -29 4 -29 8 0 4
15 8 34 8 19 0 32 -4 30 -8z m41 2 c-3 -5 -12 -10 -18 -10 -7 0 -6 4 3 10 19
12 23 12 15 0z m-577 -11 c-10 -5 -37 -8 -62 -6 -34 2 -47 -1 -57 -15 -8 -10
-23 -18 -34 -18 -16 0 -17 -2 -5 -10 8 -5 12 -11 9 -14 -2 -3 -10 -1 -17 3
-16 10 -5 41 15 41 8 0 12 4 9 9 -9 14 12 18 89 19 51 1 65 -2 53 -9z m918
-66 c-5 -5 -11 -2 -13 5 -3 6 -11 12 -19 12 -8 0 -11 -6 -7 -17 4 -10 2 -14
-4 -10 -6 4 -10 -5 -9 -22 1 -16 4 -27 8 -25 4 3 11 -4 17 -13 6 -10 11 -12
11 -5 0 6 5 12 11 12 17 0 3 -40 -36 -105 -19 -33 -35 -62 -35 -67 0 -4 -5 -8
-12 -8 -9 0 -9 3 0 12 7 7 12 16 12 22 0 5 -6 2 -13 -8 -8 -10 -12 -28 -10
-40 2 -11 -2 -29 -9 -39 -13 -18 -15 -17 -27 10 -10 23 -10 26 0 16 17 -17 29
-16 29 1 0 7 -10 13 -22 12 -19 -1 -22 -7 -23 -39 -1 -21 2 -40 6 -43 5 -3 6
3 2 13 -4 13 -3 15 6 7 15 -14 4 -44 -14 -38 -19 8 -27 34 -16 48 6 6 6 17 2
25 -6 10 -11 9 -23 -3 -9 -8 -18 -12 -22 -9 -3 4 -6 1 -6 -5 0 -7 7 -12 15
-12 22 0 18 -17 -5 -23 -12 -3 -23 1 -29 10 -6 11 -13 13 -27 5 -10 -5 -26 -7
-34 -5 -13 4 -13 3 0 -6 8 -6 24 -8 34 -5 15 5 18 2 13 -14 -3 -13 1 -27 10
-34 14 -11 15 -10 9 9 -6 20 -4 21 28 20 28 -2 36 -6 36 -21 0 -13 -5 -16 -16
-12 -13 5 -14 3 -6 -6 8 -10 0 -12 -38 -10 -40 3 -48 7 -43 20 6 14 4 14 -17
-1 -27 -19 -44 -22 -35 -7 3 6 -1 7 -9 4 -24 -9 -19 13 6 30 18 13 19 17 8 31
-7 9 -9 15 -4 14 27 -5 55 2 48 13 -5 8 0 9 14 6 12 -4 25 -1 29 4 3 7 1 8 -5
4 -10 -6 -17 10 -14 35 1 3 -9 4 -22 2 -12 -3 -28 2 -35 11 -11 13 -8 15 31
14 61 -1 118 25 119 54 0 13 3 17 6 11 3 -10 10 -10 24 -2 19 10 19 10 -1 40
-12 16 -17 29 -11 29 5 0 12 8 14 18 3 11 5 7 6 -10 0 -15 9 -34 18 -44 16
-15 17 -15 24 2 12 31 10 44 -8 43 -11 0 -13 -3 -5 -6 17 -7 15 -23 -4 -23
-10 0 -14 7 -12 23 2 14 9 21 21 21 9 -1 17 4 17 10 0 20 -12 27 -27 14 -7 -6
-16 -8 -20 -5 -3 4 6 12 21 18 20 9 25 17 20 32 -4 13 -2 17 5 13 6 -4 11 -3
11 3 0 5 8 11 18 14 20 4 50 -19 38 -30z m40 -5 c0 -20 -16 -25 -17 -5 0 7 -3
6 -6 -3 -7 -16 -29 -40 -37 -40 -3 0 -6 9 -6 20 0 11 7 20 15 20 9 0 18 6 21
13 7 20 30 16 30 -5z m-1116 -12 c0 -11 -19 -15 -25 -6 -3 5 1 10 9 10 9 0 16
-2 16 -4z m187 -20 c11 -11 -10 -26 -28 -21 -11 4 -19 2 -19 -5 0 -6 5 -8 10
-5 14 9 13 -8 -2 -23 -18 -18 -25 -14 -25 14 0 14 6 28 13 31 8 3 12 9 9 14
-6 8 34 4 42 -5z m913 -22 c0 -8 -4 -12 -10 -9 -5 3 -10 10 -10 16 0 5 5 9 10
9 6 0 10 -7 10 -16z m-150 -92 c-15 -5 -41 18 -34 30 3 5 15 1 26 -9 11 -10
15 -19 8 -21z m-1035 18 c3 -5 1 -10 -4 -10 -6 0 -11 5 -11 10 0 6 2 10 4 10
3 0 8 -4 11 -10z m984 -46 c-6 -16 -13 -24 -16 -17 -5 13 16 58 23 50 3 -2 -1
-17 -7 -33z m-1079 -70 c0 -8 -9 -14 -20 -14 -17 0 -19 3 -8 19 13 21 28 19
28 -5z m650 6 c0 -11 5 -20 11 -20 6 0 9 9 6 20 -3 11 -1 20 4 20 5 0 9 -5 9
-11 0 -6 10 -24 21 -41 17 -23 24 -27 31 -16 8 10 9 9 4 -4 -3 -10 6 -29 25
-49 51 -55 44 -59 -98 -59 -136 0 -158 5 -147 35 5 13 4 16 -4 11 -7 -4 -12
-2 -12 4 0 7 8 9 20 5 18 -6 20 -3 14 21 -6 25 -5 27 19 22 15 -3 24 -2 22 3
-3 4 -1 10 5 14 5 3 10 11 10 18 0 6 -7 2 -15 -9 -8 -10 -15 -14 -15 -8 0 6 9
23 21 38 25 32 69 36 69 6z m72 -5 c3 -13 1 -22 -3 -19 -5 3 -9 11 -9 19 0 7
-6 16 -12 18 -8 4 -7 6 3 6 10 1 19 -9 21 -24z m73 5 c4 -6 10 -8 15 -5 5 3
11 1 15 -5 4 -6 10 -8 14 -6 4 3 8 -5 8 -17 2 -20 1 -21 -11 -4 -7 9 -17 17
-23 17 -14 0 -50 29 -36 30 6 0 15 -5 18 -10z m143 0 c6 0 12 -5 12 -11 0 -7
-7 -8 -17 -4 -10 4 -28 7 -41 6 -14 0 -21 3 -16 10 3 6 16 8 28 5 11 -3 27 -6
34 -6z m-973 -63 c3 -15 0 -27 -9 -30 -9 -3 -12 -15 -9 -31 3 -14 1 -26 -5
-26 -16 0 -23 30 -11 52 6 11 8 22 5 25 -3 3 -11 -6 -17 -20 -6 -14 -18 -28
-26 -31 -17 -7 -9 9 20 41 11 12 25 20 30 16 6 -4 8 0 4 9 -3 9 -3 19 0 22 9
9 13 2 18 -27z m965 11 c0 -6 -6 -5 -15 2 -8 7 -15 14 -15 16 0 2 7 1 15 -2 8
-4 15 -11 15 -16z m-94 -24 c8 -16 12 -21 9 -11 -2 9 0 17 5 17 6 0 10 8 10
18 0 12 5 10 18 -10 9 -16 22 -28 29 -28 16 0 16 -5 3 -31 -12 -22 -35 -25
-47 -6 -4 6 -15 12 -23 12 -9 0 -14 7 -12 19 3 18 2 18 -14 5 -16 -13 -16 -12
-5 9 7 13 10 26 7 30 -3 3 -6 0 -6 -6 0 -7 -7 -12 -15 -12 -8 0 -15 6 -15 13
0 26 42 11 56 -19z m129 26 c-3 -5 -11 -10 -16 -10 -6 0 -7 5 -4 10 3 6 11 10
16 10 6 0 7 -4 4 -10z m125 -4 c0 -3 -4 -8 -10 -11 -5 -3 -10 -1 -10 4 0 6 5
11 10 11 6 0 10 -2 10 -4z m-1094 -85 c-4 -6 -12 -11 -17 -11 -6 0 -8 4 -4 9
3 5 1 12 -5 16 -6 4 -7 11 -4 17 4 6 12 4 21 -5 9 -8 12 -20 9 -26z m422 32
c-10 -2 -18 -13 -18 -24 0 -16 -7 -19 -40 -19 -40 0 -45 5 -34 34 5 12 19 16
58 15 28 -1 43 -3 34 -6z m62 -30 c0 -7 -5 -13 -11 -13 -5 0 -8 4 -5 9 4 5 1
11 -6 13 -7 3 -8 10 -4 17 7 11 10 11 17 0 5 -8 9 -20 9 -26z m-40 -8 c0 -8
-7 -15 -16 -15 -14 0 -14 3 -4 15 7 8 14 15 16 15 2 0 4 -7 4 -15z"/>
<path d="M910 142 c0 -4 5 -13 12 -20 8 -8 8 -15 -3 -29 -13 -16 -12 -17 4 -4
11 9 17 10 17 2 0 -6 5 -11 10 -11 7 0 7 6 1 18 -5 9 -12 25 -15 35 -5 17 -26
24 -26 9z"/>
<path d="M1080 112 c0 -11 60 -45 67 -38 4 3 1 6 -5 6 -7 0 -12 7 -12 15 0 9
-6 12 -15 9 -8 -4 -15 -1 -15 5 0 6 -4 11 -10 11 -5 0 -10 -4 -10 -8z"/>
<path d="M1045 80 c-3 -5 1 -10 9 -10 8 0 18 5 21 10 3 6 -1 10 -9 10 -8 0
-18 -4 -21 -10z"/>
<path d="M1241 123 c13 -38 12 -38 29 -17 8 9 9 14 2 12 -6 -2 -18 6 -26 17
-15 19 -15 18 -5 -12z"/>
<path d="M738 103 c7 -3 16 -2 19 1 4 3 -2 6 -13 5 -11 0 -14 -3 -6 -6z"/>
<path d="M1040 1290 c-125 -34 -201 -61 -207 -75 -8 -23 78 -408 96 -427 28
-30 214 -129 229 -123 8 3 59 30 113 61 69 38 100 62 104 77 44 193 47 221 29
234 -15 11 -15 15 -3 30 8 10 19 23 26 28 14 12 34 117 25 127 -15 15 -230 79
-282 83 -37 4 -80 -2 -130 -15z m250 -75 l107 -26 -32 -183 c-17 -100 -35
-188 -39 -194 -7 -11 -155 -92 -168 -92 -5 0 -8 117 -8 260 0 237 1 260 17
260 9 0 65 -11 123 -25z m-273 9 c-3 -3 -12 -4 -19 -1 -8 3 -5 6 6 6 11 1 17
-2 13 -5z m-79 -22 c-43 -14 -48 -19 -49 -46 l-1 -31 -8 35 c-10 41 -6 47 35
53 61 8 69 5 23 -11z m147 -33 c11 -16 1 -19 -13 -3 -7 8 -8 14 -3 14 5 0 13
-5 16 -11z m-188 -81 c-3 -8 -6 -5 -6 6 -1 11 2 17 5 13 3 -3 4 -12 1 -19z"/>
<path d="M1405 1060 c-3 -5 1 -10 10 -10 9 0 13 5 10 10 -3 6 -8 10 -10 10 -2
0 -7 -4 -10 -10z"/>
<path d="M1743 875 c0 -22 2 -30 4 -17 2 12 2 30 0 40 -3 9 -5 -1 -4 -23z"/>
<path d="M585 110 c3 -5 8 -10 11 -10 2 0 4 5 4 10 0 6 -5 10 -11 10 -5 0 -7
-4 -4 -10z"/>
</g>
</svg>
